<?xml version="1.0" standalone="no"?>
<!DOCTYPE svg PUBLIC "-//W3C//DTD SVG 20010904//EN"
 "http://www.w3.org/TR/2001/REC-SVG-20010904/DTD/svg10.dtd">
<svg version="1.0" xmlns="http://www.w3.org/2000/svg"
 width="260.000000pt" height="260.000000pt" viewBox="0 0 260.000000 260.000000"
 preserveAspectRatio="xMidYMid meet">
<metadata>
Created by potrace 1.11, written by Peter Selinger 2001-2013
</metadata>
<g transform="translate(0.000000,260.000000) scale(0.100000,-0.100000)"
fill="#000000" stroke="none">
<path d="M1647 2584 c-32 -7 -69 -20 -83 -27 -19 -10 -40 -11 -78 -5 -83 13
-304 10 -391 -6 -89 -17 -194 -46 -270 -75 -27 -11 -84 -21 -125 -24 -123 -6
-215 -71 -268 -186 -14 -31 -53 -88 -87 -126 -249 -285 -353 -631 -300 -991
l16 -103 -28 -53 c-24 -45 -28 -65 -28 -133 1 -66 6 -91 29 -142 47 -104 157
-188 271 -209 31 -5 58 -24 125 -87 91 -84 205 -165 308 -216 150 -75 377
-131 533 -131 50 0 78 -6 120 -26 207 -100 480 -13 604 194 16 28 46 61 65 73
19 13 82 69 140 125 58 55 128 117 156 137 64 46 123 109 159 171 72 123 102
282 72 386 -12 42 -14 81 -10 161 13 246 -74 525 -234 744 -38 52 -54 84 -61
125 -22 120 -72 209 -164 297 -125 117 -308 167 -471 127z m273 -171 c120 -56
203 -171 216 -301 6 -55 13 -69 56 -123 109 -136 182 -293 219 -472 18 -85 20
-123 15 -227 -4 -99 -2 -135 10 -170 12 -32 15 -66 11 -117 -9 -126 -85 -249
-199 -326 -29 -20 -89 -72 -133 -117 -44 -45 -111 -104 -148 -132 -47 -35 -75
-65 -91 -97 -34 -66 -90 -119 -163 -153 -57 -27 -72 -30 -141 -27 -64 3 -89
10 -138 35 -54 28 -68 31 -156 32 -289 2 -538 110 -773 332 -99 95 -104 98
-148 98 -109 0 -207 101 -207 214 0 14 16 56 35 93 l36 67 -18 82 c-24 108
-24 330 0 438 43 201 163 414 311 558 21 20 41 51 47 75 24 89 100 142 187
130 39 -5 60 -1 125 25 207 83 454 110 635 69 33 -7 50 -6 80 7 92 41 108 44
187 41 65 -3 94 -9 145 -34z"/>
<path d="M1102 2189 c-47 -23 -86 -74 -97 -125 -13 -66 45 -151 122 -180 37
-15 50 -15 86 -4 77 23 137 93 137 161 0 52 -48 121 -102 148 -56 27 -92 27
-146 0z"/>
<path d="M1722 1919 c-124 -62 -124 -228 1 -288 52 -25 87 -27 130 -5 69 35
107 88 107 149 0 85 -85 165 -175 165 -11 0 -39 -10 -63 -21z"/>
<path d="M617 1715 c-85 -32 -141 -100 -153 -188 -6 -38 -2 -56 21 -102 44
-92 138 -144 231 -130 96 14 194 120 194 211 0 83 -73 179 -158 208 -55 19
-84 19 -135 1z"/>
<path d="M1237 1449 c-85 -45 -101 -140 -34 -206 64 -64 156 -54 213 24 44 59
7 156 -72 189 -44 18 -61 17 -107 -7z"/>
<path d="M1880 1135 c-99 -32 -173 -128 -173 -224 0 -70 20 -117 68 -166 70
-69 155 -91 249 -63 55 16 140 101 155 154 32 114 -13 221 -115 276 -63 34
-126 42 -184 23z"/>
<path d="M802 914 c-110 -55 -164 -173 -130 -288 16 -55 109 -148 164 -164
126 -37 251 21 309 143 31 67 32 109 2 178 -61 136 -216 195 -345 131z"/>
</g>
</svg>
